<?xml version="1.0" encoding="utf-8"?>
<!-- Generator: Adobe Illustrator 22.0.0, SVG Export Plug-In . SVG Version: 6.00 Build 0)  -->
<svg version="1.1" id="Layer_1" xmlns="http://www.w3.org/2000/svg" xmlns:xlink="http://www.w3.org/1999/xlink" x="0px" y="0px"
	 viewBox="0 0 1226 137" style="enable-background:new 0 0 1226 137;" xml:space="preserve">
<style type="text/css">
	.st0{display:none;fill:#E5E5E5;enable-background:new    ;}
	.st1{font-family:'MuseoSans-500';}
	.st2{font-size:172.8034px;}
	.st3{enable-background:new    ;}
	.st4{fill:#E5E5E5;}
</style>
<text id="text" transform="matrix(1 0 0 1 0.4187 130.2954)" class="st0 st1 st2">CODESLING.IO</text>
<g class="st3">
	<path class="st4" d="M70.8,6.2c29.4,0,44.4,16.1,44.4,16.1l-8.5,12.8c0,0-14.2-13.3-35.3-13.3c-27.3,0-45.1,20.7-45.1,46.7
		c0,26.1,18.1,48.2,45.3,48.2c23,0,37.7-15.9,37.7-15.9l9.2,12.3c0,0-16.8,19.4-47.3,19.4c-36.6,0-62.4-28-62.4-63.8
		C8.7,33.2,35.3,6.2,70.8,6.2z"/>
	<path class="st4" d="M195.3,6.2c35.3,0,62.6,27.1,62.6,62.2c0,35.9-27.3,63.9-62.6,63.9c-35.3,0-62.7-28-62.7-63.9
		C132.6,33.4,160.1,6.2,195.3,6.2z M195.3,116.6c24.9,0,44.9-20.7,44.9-48.2c0-26.6-20-46.7-44.9-46.7c-24.9,0-45.1,20-45.1,46.7
		C150.2,95.9,170.5,116.6,195.3,116.6z"/>
	<path class="st4" d="M282.8,8.3h40.4c37.3,0,61.9,22.3,61.9,60.8c0,38.7-24.5,61.2-61.9,61.2h-40.4V8.3z M322,115.4
		c27.5,0,45.4-16.2,45.4-46.3c0-29.9-18.1-46-45.4-46h-22.1v92.3H322z"/>
	<path class="st4" d="M410.7,8.3h70.9v14.9h-53.7v38.2h43.7v14.9h-43.7v39.2h56.7v14.9h-73.8V8.3z"/>
	<path class="st4" d="M510,103.3c0,0,13,13.1,31.1,13.1c11.4,0,21.1-6.4,21.1-18c0-26.4-59.1-20.7-59.1-58.2c0-19,16.4-34,39.4-34
		c22.6,0,34.6,12.3,34.6,12.3l-7.8,14.2c0,0-11.2-10.5-26.8-10.5c-13,0-22.1,8.1-22.1,17.8c0,25.2,59.1,18.5,59.1,58.1
		c0,18.8-14.5,34.4-38.7,34.4c-25.9,0-40.4-16.1-40.4-16.1L510,103.3z"/>
	<path class="st4" d="M604,8.3h17.1v107.1h54.6v14.9H604V8.3z"/>
	<path class="st4" d="M695.4,8.3h17.1v122h-17.1V8.3z"/>
	<path class="st4" d="M745.7,8.3h16.9l54.3,79.3c4.5,6.6,10.2,17.6,10.2,17.6h0.3c0,0-1.2-10.9-1.2-17.6V8.3h17.1v122h-16.8
		l-54.4-79.1c-4.5-6.7-10.2-17.8-10.2-17.8h-0.3c0,0,1.2,10.9,1.2,17.8v79.1h-17.1V8.3z"/>
	<path class="st4" d="M930.6,6.2c29.2,0,44.4,14.7,44.4,14.7l-8.6,12.8c0,0-13.7-11.9-34.4-11.9c-28.7,0-46,20.9-46,47
		c0,28.3,19.4,47.9,44.9,47.9c21.1,0,34.6-15.2,34.6-15.2V83.8h-19.9V68.9h35.4v61.3h-15v-7.6c0-2.6,0.2-5.2,0.2-5.2h-0.3
		c0,0-13.3,14.9-37.5,14.9c-32.8,0-60-25.9-60-63.2C868.4,33.9,895,6.2,930.6,6.2z"/>
	<path class="st4" d="M1004.4,112.5h17.6v17.8h-17.6V112.5z"/>
	<path class="st4" d="M1050,8.3h17.1v122H1050V8.3z"/>
	<path class="st4" d="M1154.7,6.2c35.3,0,62.6,27.1,62.6,62.2c0,35.9-27.3,63.9-62.6,63.9c-35.3,0-62.7-28-62.7-63.9
		C1092,33.4,1119.5,6.2,1154.7,6.2z M1154.7,116.6c24.9,0,44.9-20.7,44.9-48.2c0-26.6-20-46.7-44.9-46.7c-24.9,0-45.1,20-45.1,46.7
		C1109.6,95.9,1129.8,116.6,1154.7,116.6z"/>
</g>
</svg>
